<?xml version="1.0" encoding="utf-8"?>
<!-- Generator: Adobe Illustrator 24.1.3, SVG Export Plug-In . SVG Version: 6.00 Build 0)  -->
<svg version="1.1" id="Layer_1" xmlns="http://www.w3.org/2000/svg" xmlns:xlink="http://www.w3.org/1999/xlink" x="0px" y="0px"
	 viewBox="0 0 100 100" style="enable-background:new 0 0 100 100;" xml:space="preserve">
<g>
	<path d="M62.54,52.96l-9.38,10.47c-0.18,0.21-0.42,0.31-0.66,0.31c-0.24,0-0.48-0.1-0.66-0.31l-9.4-10.51
		C42.31,52.8,39,49.3,39,45.11c0-5.11,2.7-8.17,7.2-8.17c2.64,0,5.11,2.41,6.29,3.77c1.19-1.36,3.66-3.77,6.3-3.77
		c4.5,0,7.2,3.05,7.2,8.17C65.99,49.3,62.68,52.8,62.54,52.96z M58.79,39.17c-2.24,0-4.77,2.81-5.56,3.89
		c-0.36,0.51-1.11,0.51-1.48,0c-0.78-1.08-3.31-3.89-5.56-3.89c-2.41,0-5.27,1.03-5.27,5.94c0,3.19,2.79,6.16,2.82,6.2l8.75,9.78
		l8.74-9.76c0.04-0.05,2.83-3.02,2.83-6.21C64.06,40.2,61.2,39.17,58.79,39.17z"/>
</g>
<g>
</g>
<g>
</g>
<g>
</g>
<g>
</g>
<g>
</g>
<g>
</g>
<g>
</g>
<g>
</g>
<g>
</g>
<g>
</g>
<g>
</g>
</svg>
