<?xml version="1.0" encoding="utf-8"?>
<svg version="1.1" id="Layer_1" xmlns="http://www.w3.org/2000/svg" xmlns:xlink="http://www.w3.org/1999/xlink" x="0px" y="0px"
	 viewBox="0 0 100 100" style="enable-background:new 0 0 100 100;" xml:space="preserve">
	<path d="M62.01,50.78c0,5.78-4.93,10.46-11,10.46s-11-4.69-11-10.46s4.93-10.46,11-10.46S62.01,45,62.01,50.78z M56.96,50.78
		c0-0.31-0.17-0.6-0.46-0.75l-7.79-4.36c-0.27-0.16-0.63-0.16-0.92-0.01c-0.29,0.16-0.46,0.45-0.46,0.76v8.72
		c0,0.31,0.17,0.6,0.46,0.76c0.14,0.07,0.3,0.11,0.46,0.11s0.32-0.04,0.46-0.12l7.79-4.36C56.79,51.38,56.96,51.09,56.96,50.78z"/></svg>



