<?xml version="1.0" encoding="utf-8"?>
<!-- Generator: Adobe Illustrator 24.1.3, SVG Export Plug-In . SVG Version: 6.00 Build 0)  -->
<svg version="1.1" id="Layer_1" xmlns="http://www.w3.org/2000/svg" xmlns:xlink="http://www.w3.org/1999/xlink" x="0px" y="0px"
	 viewBox="0 0 100 100" style="enable-background:new 0 0 100 100;" xml:space="preserve">
<g>
	<path d="M51,59.59c-4.97,0-9-3.75-9-8.38s4.03-8.38,9-8.38c4.97,0,9,3.75,9,8.38S55.97,59.59,51,59.59z M56.25,50.52
		c0-0.38-0.34-0.7-0.75-0.7h-3v-2.79c0-0.38-0.34-0.7-0.75-0.7h-1.5c-0.41,0-0.75,0.32-0.75,0.7v2.79h-3c-0.41,0-0.75,0.32-0.75,0.7
		v1.4c0,0.38,0.34,0.7,0.75,0.7h3v2.79c0,0.38,0.34,0.7,0.75,0.7h1.5c0.41,0,0.75-0.32,0.75-0.7v-2.79h3c0.41,0,0.75-0.32,0.75-0.7
		V50.52z"/>

</svg>
