<?xml version="1.0" encoding="utf-8"?>
<!-- Generator: Adobe Illustrator 24.1.3, SVG Export Plug-In . SVG Version: 6.00 Build 0)  -->
<svg version="1.1" id="Layer_1" xmlns="http://www.w3.org/2000/svg" xmlns:xlink="http://www.w3.org/1999/xlink" x="0px" y="0px"
	 viewBox="0 0 100 100" style="enable-background:new 0 0 100 100;" xml:space="preserve">
<g>
	<path d="M60.68,48.99l-4.42,3.87l1.05,5.47c0.01,0.08,0.01,0.14,0.01,0.22c0,0.28-0.15,0.55-0.5,0.55c-0.17,0-0.34-0.05-0.49-0.13
		l-5.46-2.58l-5.46,2.58c-0.16,0.08-0.32,0.13-0.49,0.13c-0.35,0-0.51-0.26-0.51-0.55c0-0.08,0.01-0.14,0.02-0.22l1.05-5.47
		l-4.43-3.87c-0.15-0.14-0.3-0.33-0.3-0.52c0-0.33,0.38-0.46,0.68-0.5l6.1-0.8l2.74-4.98c0.11-0.21,0.32-0.45,0.6-0.45
		s0.49,0.24,0.6,0.45l2.74,4.98l6.1,0.8c0.29,0.04,0.68,0.18,0.68,0.5C60.99,48.66,60.83,48.85,60.68,48.99z"/>

</svg>
