<?xml version="1.0" encoding="utf-8"?>
<!-- Generator: Adobe Illustrator 24.1.3, SVG Export Plug-In . SVG Version: 6.00 Build 0)  -->
<svg version="1.1" id="Layer_1" xmlns="http://www.w3.org/2000/svg" xmlns:xlink="http://www.w3.org/1999/xlink" x="0px" y="0px"
	 viewBox="0 0 100 100" style="enable-background:new 0 0 100 100;" xml:space="preserve">
<g>
	<path d="M60.99,52.76c0,2-1.68,3.62-3.75,3.62h-12.5c-2.07,0-3.75-1.62-3.75-3.62V40.69c0-2,1.68-3.62,3.75-3.62h12.5
		c2.07,0,3.75,1.62,3.75,3.62V52.76z M56.08,43.55c0.57-0.33,1-0.85,1.21-1.47c-0.53,0.3-1.12,0.53-1.74,0.64
		c-0.5-0.52-1.21-0.83-1.99-0.83c-1.51,0-2.73,1.18-2.73,2.64c0,0.2,0.01,0.41,0.07,0.6c-2.28-0.11-4.3-1.16-5.65-2.77
		c-0.23,0.39-0.38,0.86-0.38,1.33c0,0.92,0.44,1.72,1.18,2.2c-0.46-0.01-0.89-0.14-1.3-0.33c0,0,0,0.01,0,0.02
		c0,1.28,1,2.35,2.25,2.59c-0.23,0.06-0.42,0.1-0.66,0.1c-0.17,0-0.34-0.03-0.51-0.05c0.35,1.04,1.35,1.81,2.55,1.84
		c-0.94,0.7-2.11,1.13-3.4,1.13c-0.22,0-0.44-0.01-0.65-0.04c1.21,0.74,2.64,1.18,4.19,1.18c5.02,0,7.78-4.02,7.78-7.52
		c0-0.11,0-0.23-0.01-0.34c0.53-0.36,1-0.83,1.37-1.37C57.17,43.34,56.64,43.48,56.08,43.55z"/>
</g>
<g>
</g>
<g>
</g>
<g>
</g>
<g>
</g>
<g>
</g>
<g>
</g>
<g>
</g>
<g>
</g>
<g>
</g>
<g>
</g>
<g>
</g>
</svg>
