<svg version="1.1"
     xmlns="http://www.w3.org/2000/svg">

    <symbol id="home" viewBox="0 0 100 100">
        <path d="M63.66,51.69c-0.07,0.08-0.18,0.14-0.29,0.16c-0.01,0-0.03,0-0.04,0c-0.11,0-0.21-0.03-0.29-0.1l-9.66-8.2l-9.66,8.2
		c-0.1,0.07-0.21,0.11-0.33,0.1c-0.11-0.01-0.22-0.07-0.29-0.16l-0.87-1.05c-0.15-0.19-0.13-0.48,0.06-0.64l10.04-8.51
		c0.59-0.5,1.54-0.5,2.12,0l3.41,2.9v-2.77c0-0.26,0.2-0.45,0.45-0.45h2.68c0.25,0,0.45,0.2,0.45,0.45v5.8L64.47,50
		c0.18,0.16,0.21,0.45,0.06,0.64L63.66,51.69z M61.41,58.44c0,0.5-0.41,0.91-0.89,0.91h-5.36v-5.46h-3.57v5.46h-5.36
		c-0.49,0-0.89-0.41-0.89-0.91v-6.82c0-0.03,0.01-0.06,0.01-0.08l8.03-6.73l8.03,6.73c0.01,0.03,0.01,0.06,0.01,0.08V58.44z"/>
    </symbol>

    <symbol id="brief" viewBox="0 0 100 100">
        <path d="M63.01,52.14H43.76v-4.2c0-0.96,0.77-1.75,1.72-1.75h3.78v-1.75c0-0.58,0.46-1.05,1.03-1.05h6.19
		c0.57,0,1.03,0.47,1.03,1.05v1.75h3.78c0.95,0,1.72,0.79,1.72,1.75V52.14z M63.01,58.44c0,0.96-0.77,1.75-1.72,1.75H45.48
		c-0.95,0-1.72-0.79-1.72-1.75v-5.25h7.22v1.75c0,0.38,0.31,0.7,0.69,0.7h3.44c0.38,0,0.69-0.32,0.69-0.7v-1.75h7.22V58.44z
		 M56.13,46.19v-1.4h-5.5v1.4H56.13z M54.76,54.59h-2.75v-1.4h2.75V54.59z"/>

    </symbol>
    <symbol id="pencil" viewBox="0 0 100 100">
        <path d="M56.13,51.04l-8.25,8.62h-4.13v-4.31l8.25-8.62L56.13,51.04z M48.26,57.4l-2.33-2.44l-0.9,0.94v1.11h1.27v1.33h1.06
		L48.26,57.4z M52.32,48.5c-0.06,0-0.12,0.02-0.17,0.07l-5.38,5.62c-0.05,0.05-0.07,0.11-0.07,0.18c0,0.13,0.09,0.23,0.22,0.23
		c0.06,0,0.12-0.02,0.17-0.07l5.38-5.62c0.05-0.05,0.07-0.11,0.07-0.18C52.54,48.59,52.45,48.5,52.32,48.5z M58.41,48.66l-1.65,1.72
		l-4.13-4.31l1.65-1.71c0.23-0.25,0.56-0.39,0.89-0.39s0.66,0.15,0.9,0.39l2.33,2.42c0.23,0.25,0.37,0.59,0.37,0.94
		S58.64,48.42,58.41,48.66z"/>

    </symbol>
    <symbol id="gear" viewBox="0 0 100 100">
        <path d="M60,51.85c0,0.16-0.13,0.34-0.3,0.37l-1.96,0.29c-0.12,0.33-0.24,0.64-0.41,0.95c0.36,0.51,0.74,0.97,1.13,1.43
		c0.06,0.07,0.11,0.17,0.11,0.26s-0.03,0.17-0.1,0.24c-0.25,0.33-1.68,1.86-2.04,1.86c-0.09,0-0.19-0.04-0.27-0.09l-1.46-1.12
		c-0.31,0.16-0.63,0.29-0.96,0.39c-0.07,0.63-0.14,1.31-0.31,1.93c-0.04,0.17-0.19,0.29-0.38,0.29H50.7c-0.19,0-0.36-0.13-0.38-0.31
		l-0.3-1.91c-0.33-0.1-0.65-0.23-0.95-0.38l-1.49,1.11c-0.07,0.06-0.17,0.09-0.26,0.09s-0.19-0.04-0.26-0.12
		c-0.56-0.5-1.3-1.14-1.75-1.75c-0.05-0.07-0.07-0.16-0.07-0.24c0-0.09,0.03-0.17,0.08-0.24c0.36-0.48,0.75-0.93,1.11-1.42
		c-0.18-0.33-0.33-0.68-0.43-1.03l-1.94-0.28c-0.18-0.03-0.31-0.2-0.31-0.37v-2.31c0-0.16,0.13-0.34,0.29-0.37l1.97-0.29
		c0.11-0.33,0.24-0.64,0.41-0.96c-0.36-0.5-0.74-0.97-1.13-1.43c-0.06-0.07-0.11-0.16-0.11-0.25c0-0.09,0.04-0.17,0.1-0.24
		c0.25-0.34,1.68-1.86,2.04-1.86c0.1,0,0.19,0.04,0.27,0.1l1.46,1.11c0.31-0.16,0.63-0.29,0.96-0.4c0.07-0.63,0.14-1.31,0.31-1.93
		c0.04-0.17,0.19-0.29,0.38-0.29h2.35c0.19,0,0.36,0.14,0.38,0.31l0.3,1.91c0.33,0.1,0.65,0.23,0.95,0.38l1.5-1.11
		c0.06-0.06,0.16-0.09,0.25-0.09c0.1,0,0.19,0.04,0.26,0.1c0.56,0.51,1.3,1.15,1.75,1.77c0.05,0.06,0.07,0.15,0.07,0.23
		c0,0.09-0.03,0.17-0.08,0.24c-0.36,0.48-0.75,0.94-1.11,1.42c0.18,0.33,0.33,0.68,0.43,1.02l1.93,0.29
		c0.18,0.03,0.31,0.2,0.31,0.37V51.85z M51.88,48.02c-1.49,0-2.71,1.2-2.71,2.66s1.22,2.66,2.71,2.66c1.49,0,2.71-1.2,2.71-2.66
		S53.37,48.02,51.88,48.02z"/>

    </symbol>

</svg>