<?xml version="1.0" encoding="utf-8"?>
<!-- Generator: Adobe Illustrator 24.1.3, SVG Export Plug-In . SVG Version: 6.00 Build 0)  -->
<svg version="1.1" id="Layer_1" xmlns="http://www.w3.org/2000/svg" xmlns:xlink="http://www.w3.org/1999/xlink" x="0px" y="0px"
	 viewBox="0 0 100 100" style="enable-background:new 0 0 100 100;" xml:space="preserve">
<g>
	<path d="M63.01,52.14H43.76v-4.2c0-0.96,0.77-1.75,1.72-1.75h3.78v-1.75c0-0.58,0.46-1.05,1.03-1.05h6.19
		c0.57,0,1.03,0.47,1.03,1.05v1.75h3.78c0.95,0,1.72,0.79,1.72,1.75V52.14z M63.01,58.44c0,0.96-0.77,1.75-1.72,1.75H45.48
		c-0.95,0-1.72-0.79-1.72-1.75v-5.25h7.22v1.75c0,0.38,0.31,0.7,0.69,0.7h3.44c0.38,0,0.69-0.32,0.69-0.7v-1.75h7.22V58.44z
		 M56.13,46.19v-1.4h-5.5v1.4H56.13z M54.76,54.59h-2.75v-1.4h2.75V54.59z"/>
</g>
<g>
</g>
<g>
</g>
<g>
</g>
<g>
</g>
<g>
</g>
<g>
</g>
<g>
</g>
<g>
</g>
<g>
</g>
<g>
</g>
<g>
</g>
</svg>
