<?xml version="1.0" encoding="utf-8"?>
<!-- Generator: Adobe Illustrator 24.1.3, SVG Export Plug-In . SVG Version: 6.00 Build 0)  -->
<svg version="1.1" id="Layer_1" xmlns="http://www.w3.org/2000/svg" xmlns:xlink="http://www.w3.org/1999/xlink" x="0px" y="0px"
	 viewBox="0 0 100 100" style="enable-background:new 0 0 100 100;" xml:space="preserve">
<style type="text/css">
	.st0{fill:none;}
</style>
<g>
</g>
<g>
	<rect x="-9.8" y="101.47" class="st0" width="3.65" height="1.35"/>
</g>
<g>
	<path d="M68,48.26H39.02v-6.09c0-1.4,1.16-2.54,2.59-2.54h5.69V37.1c0-0.84,0.7-1.52,1.55-1.52h9.32c0.86,0,1.55,0.68,1.55,1.52
		v2.54h5.69c1.42,0,2.59,1.14,2.59,2.54V48.26z M68,57.39c0,1.39-1.17,2.54-2.59,2.54H41.61c-1.42,0-2.59-1.14-2.59-2.54v-7.61
		h10.87v2.54c0,0.56,0.47,1.02,1.04,1.02h5.18c0.57,0,1.04-0.46,1.04-1.02v-2.54H68V57.39z M57.65,39.64v-2.03h-8.28v2.03H57.65z
		 M55.58,51.81h-4.14v-2.03h4.14V51.81z"/>
</g>
<g>
</g>
<g>
</g>
<g>
</g>
<g>
</g>
<g>
</g>
<g>
</g>
<g>
</g>
<g>
</g>
<g>
</g>
<g>
</g>
<g>
</g>
</svg>
