<?xml version="1.0" encoding="utf-8"?>
<!-- Generator: Adobe Illustrator 24.1.3, SVG Export Plug-In . SVG Version: 6.00 Build 0)  -->
<svg version="1.1" id="Layer_1" xmlns="http://www.w3.org/2000/svg" xmlns:xlink="http://www.w3.org/1999/xlink" x="0px" y="0px"
	 viewBox="0 0 100 100" style="enable-background:new 0 0 100 100;" xml:space="preserve">
<g>
	<path d="M53.53,47.97v11.27c0,0.85-0.71,1.53-1.6,1.53c-0.88,0-1.6-0.68-1.6-1.53v-5.25h-0.91v5.25c0,0.85-0.71,1.53-1.6,1.53
		c-0.88,0-1.6-0.68-1.6-1.53V47.97l-4.16-3.99c-0.53-0.52-0.53-1.34,0-1.86c0.54-0.51,1.4-0.51,1.94,0l3.25,3.12h5.24l3.25-3.12
		c0.54-0.51,1.4-0.51,1.94,0c0.53,0.52,0.53,1.34,0,1.86L53.53,47.97z M49.88,44.8c-1.77,0-3.19-1.37-3.19-3.06s1.42-3.06,3.19-3.06
		s3.19,1.37,3.19,3.06S51.64,44.8,49.88,44.8z"/>
</g>
<g>
</g>
<g>
</g>
<g>
</g>
<g>
</g>
<g>
</g>
<g>
</g>
<g>
</g>
<g>
</g>
<g>
</g>
<g>
</g>
<g>
</g>
</svg>
