<?xml version="1.0" encoding="utf-8"?>
<!-- Generator: Adobe Illustrator 24.1.3, SVG Export Plug-In . SVG Version: 6.00 Build 0)  -->
<svg version="1.1" id="Layer_1" xmlns="http://www.w3.org/2000/svg" xmlns:xlink="http://www.w3.org/1999/xlink" x="0px" y="0px"
	 viewBox="0 0 100 100" style="enable-background:new 0 0 100 100;" xml:space="preserve">
<g>
	<path d="M60,51.85c0,0.16-0.13,0.34-0.3,0.37l-1.96,0.29c-0.12,0.33-0.24,0.64-0.41,0.95c0.36,0.51,0.74,0.97,1.13,1.43
		c0.06,0.07,0.11,0.17,0.11,0.26s-0.03,0.17-0.1,0.24c-0.25,0.33-1.68,1.86-2.04,1.86c-0.09,0-0.19-0.04-0.27-0.09l-1.46-1.12
		c-0.31,0.16-0.63,0.29-0.96,0.39c-0.07,0.63-0.14,1.31-0.31,1.93c-0.04,0.17-0.19,0.29-0.38,0.29H50.7c-0.19,0-0.36-0.13-0.38-0.31
		l-0.3-1.91c-0.33-0.1-0.65-0.23-0.95-0.38l-1.49,1.11c-0.07,0.06-0.17,0.09-0.26,0.09s-0.19-0.04-0.26-0.12
		c-0.56-0.5-1.3-1.14-1.75-1.75c-0.05-0.07-0.07-0.16-0.07-0.24c0-0.09,0.03-0.17,0.08-0.24c0.36-0.48,0.75-0.93,1.11-1.42
		c-0.18-0.33-0.33-0.68-0.43-1.03l-1.94-0.28c-0.18-0.03-0.31-0.2-0.31-0.37v-2.31c0-0.16,0.13-0.34,0.29-0.37l1.97-0.29
		c0.11-0.33,0.24-0.64,0.41-0.96c-0.36-0.5-0.74-0.97-1.13-1.43c-0.06-0.07-0.11-0.16-0.11-0.25c0-0.09,0.04-0.17,0.1-0.24
		c0.25-0.34,1.68-1.86,2.04-1.86c0.1,0,0.19,0.04,0.27,0.1l1.46,1.11c0.31-0.16,0.63-0.29,0.96-0.4c0.07-0.63,0.14-1.31,0.31-1.93
		c0.04-0.17,0.19-0.29,0.38-0.29h2.35c0.19,0,0.36,0.14,0.38,0.31l0.3,1.91c0.33,0.1,0.65,0.23,0.95,0.38l1.5-1.11
		c0.06-0.06,0.16-0.09,0.25-0.09c0.1,0,0.19,0.04,0.26,0.1c0.56,0.51,1.3,1.15,1.75,1.77c0.05,0.06,0.07,0.15,0.07,0.23
		c0,0.09-0.03,0.17-0.08,0.24c-0.36,0.48-0.75,0.94-1.11,1.42c0.18,0.33,0.33,0.68,0.43,1.02l1.93,0.29
		c0.18,0.03,0.31,0.2,0.31,0.37V51.85z M51.88,48.02c-1.49,0-2.71,1.2-2.71,2.66s1.22,2.66,2.71,2.66c1.49,0,2.71-1.2,2.71-2.66
		S53.37,48.02,51.88,48.02z"/>
</g>
<g>
</g>
<g>
</g>
<g>
</g>
<g>
</g>
<g>
</g>
<g>
</g>
<g>
</g>
<g>
</g>
<g>
</g>
<g>
</g>
<g>
</g>
</svg>
