<?xml version="1.0" encoding="utf-8"?>
<!-- Generator: Adobe Illustrator 24.1.3, SVG Export Plug-In . SVG Version: 6.00 Build 0)  -->
<svg version="1.1" id="Layer_1" xmlns="http://www.w3.org/2000/svg" xmlns:xlink="http://www.w3.org/1999/xlink" x="0px" y="0px"
	 viewBox="0 0 100 100" style="enable-background:new 0 0 100 100;" xml:space="preserve">
<style type="text/css">
	.st0{fill:none;}
</style>
<g>
</g>
<g>
	<rect x="-9.8" y="101.47" class="st0" width="3.65" height="1.35"/>
</g>
<g>
	<path d="M65,50.44c0,0.28-0.23,0.61-0.55,0.67l-3.61,0.52c-0.21,0.59-0.45,1.15-0.76,1.69c0.66,0.91,1.37,1.73,2.09,2.56
		c0.12,0.13,0.2,0.3,0.2,0.46s-0.06,0.3-0.18,0.43c-0.47,0.59-3.1,3.32-3.77,3.32c-0.18,0-0.35-0.07-0.51-0.17l-2.69-2.01
		c-0.57,0.28-1.17,0.52-1.78,0.71c-0.14,1.13-0.25,2.34-0.57,3.45c-0.08,0.3-0.35,0.52-0.7,0.52h-4.33c-0.35,0-0.66-0.24-0.7-0.56
		l-0.55-3.42c-0.6-0.19-1.19-0.41-1.76-0.69l-2.75,1.99c-0.14,0.11-0.31,0.17-0.49,0.17c-0.18,0-0.35-0.07-0.49-0.2
		c-1.03-0.89-2.4-2.04-3.22-3.12c-0.1-0.13-0.14-0.28-0.14-0.43c0-0.17,0.06-0.3,0.16-0.43c0.66-0.85,1.39-1.67,2.05-2.54
		c-0.33-0.59-0.6-1.21-0.8-1.84l-3.57-0.5c-0.33-0.06-0.57-0.35-0.57-0.67v-4.12c0-0.28,0.23-0.61,0.53-0.67l3.63-0.52
		c0.2-0.59,0.45-1.15,0.76-1.71c-0.66-0.89-1.37-1.73-2.09-2.56c-0.12-0.13-0.19-0.28-0.19-0.45s0.08-0.3,0.18-0.43
		c0.47-0.61,3.1-3.32,3.77-3.32c0.18,0,0.35,0.07,0.51,0.19l2.69,1.99c0.57-0.28,1.17-0.52,1.78-0.71c0.14-1.13,0.25-2.34,0.57-3.45
		c0.08-0.3,0.35-0.52,0.7-0.52h4.33c0.35,0,0.66,0.24,0.7,0.56l0.55,3.42c0.61,0.19,1.19,0.41,1.76,0.69l2.77-1.99
		c0.12-0.11,0.29-0.17,0.47-0.17s0.35,0.07,0.49,0.19c1.03,0.91,2.4,2.06,3.22,3.16c0.1,0.11,0.14,0.26,0.14,0.41
		c0,0.17-0.06,0.3-0.16,0.43c-0.66,0.85-1.39,1.67-2.05,2.54c0.33,0.59,0.6,1.21,0.8,1.82l3.57,0.52C64.76,45.71,65,46,65,46.32
		V50.44z M50.01,43.59c-2.75,0-5,2.14-5,4.75s2.24,4.75,5,4.75s5-2.14,5-4.75S52.76,43.59,50.01,43.59z"/>
</g>
<g>
</g>
<g>
</g>
<g>
</g>
<g>
</g>
<g>
</g>
<g>
</g>
<g>
</g>
<g>
</g>
<g>
</g>
<g>
</g>
<g>
</g>
</svg>
