<?xml version="1.0" encoding="utf-8"?>
<!-- Generator: Adobe Illustrator 24.1.3, SVG Export Plug-In . SVG Version: 6.00 Build 0)  -->
<svg version="1.1" id="Layer_1" xmlns="http://www.w3.org/2000/svg" xmlns:xlink="http://www.w3.org/1999/xlink" x="0px" y="0px"
	 viewBox="0 0 100 100" style="enable-background:new 0 0 100 100;" xml:space="preserve">
<g>
	<path d="M63.66,51.69c-0.07,0.08-0.18,0.14-0.29,0.16c-0.01,0-0.03,0-0.04,0c-0.11,0-0.21-0.03-0.29-0.1l-9.66-8.2l-9.66,8.2
		c-0.1,0.07-0.21,0.11-0.33,0.1c-0.11-0.01-0.22-0.07-0.29-0.16l-0.87-1.05c-0.15-0.19-0.13-0.48,0.06-0.64l10.04-8.51
		c0.59-0.5,1.54-0.5,2.12,0l3.41,2.9v-2.77c0-0.26,0.2-0.45,0.45-0.45h2.68c0.25,0,0.45,0.2,0.45,0.45v5.8L64.47,50
		c0.18,0.16,0.21,0.45,0.06,0.64L63.66,51.69z M61.41,58.44c0,0.5-0.41,0.91-0.89,0.91h-5.36v-5.46h-3.57v5.46h-5.36
		c-0.49,0-0.89-0.41-0.89-0.91v-6.82c0-0.03,0.01-0.06,0.01-0.08l8.03-6.73l8.03,6.73c0.01,0.03,0.01,0.06,0.01,0.08V58.44z"/>
</g>
<g>
</g>
<g>
</g>
<g>
</g>
<g>
</g>
<g>
</g>
<g>
</g>
<g>
</g>
<g>
</g>
<g>
</g>
<g>
</g>
<g>
</g>
</svg>
