<?xml version="1.0" encoding="utf-8"?>
<!-- Generator: Adobe Illustrator 24.1.3, SVG Export Plug-In . SVG Version: 6.00 Build 0)  -->
<svg version="1.1" id="Layer_1" xmlns="http://www.w3.org/2000/svg" xmlns:xlink="http://www.w3.org/1999/xlink" x="0px" y="0px"
	 viewBox="0 0 100 100" style="enable-background:new 0 0 100 100;" xml:space="preserve">
<style type="text/css">
	.st0{fill:none;}
</style>
<g>
</g>
<g>
	<rect x="-9.8" y="101.47" class="st0" width="3.65" height="1.35"/>
</g>
<g>
	<path d="M67.9,52.18c-0.11,0.13-0.29,0.22-0.47,0.25c-0.02,0-0.04,0-0.07,0c-0.18,0-0.33-0.04-0.47-0.16L51.52,39.35L36.13,52.27
		c-0.16,0.11-0.33,0.18-0.53,0.16c-0.18-0.02-0.36-0.11-0.47-0.25l-1.38-1.66c-0.24-0.29-0.2-0.76,0.09-1.01l15.98-13.41
		c0.93-0.78,2.45-0.78,3.38,0l5.42,4.57v-4.37c0-0.4,0.31-0.72,0.71-0.72h4.27c0.4,0,0.71,0.31,0.71,0.72v9.13l4.87,4.07
		c0.29,0.25,0.33,0.72,0.09,1.01L67.9,52.18z M64.32,62.81c0,0.78-0.65,1.43-1.42,1.43h-8.54v-8.6h-5.69v8.6h-8.54
		c-0.78,0-1.42-0.65-1.42-1.43V52.07c0-0.04,0.02-0.09,0.02-0.13l12.78-10.61L64.3,51.93c0.02,0.04,0.02,0.09,0.02,0.13V62.81z"/>
</g>
<g>
</g>
<g>
</g>
<g>
</g>
<g>
</g>
<g>
</g>
<g>
</g>
<g>
</g>
<g>
</g>
<g>
</g>
<g>
</g>
<g>
</g>
</svg>
