<svg version="1.1"
     xmlns="http://www.w3.org/2000/svg">

    <symbol id="code-camp" viewBox="0 0 100 100">
<!--        child-->
        <path d="M53.53,47.97v11.27c0,0.85-0.71,1.53-1.6,1.53c-0.88,0-1.6-0.68-1.6-1.53v-5.25h-0.91v5.25c0,0.85-0.71,1.53-1.6,1.53
		c-0.88,0-1.6-0.68-1.6-1.53V47.97l-4.16-3.99c-0.53-0.52-0.53-1.34,0-1.86c0.54-0.51,1.4-0.51,1.94,0l3.25,3.12h5.24l3.25-3.12
		c0.54-0.51,1.4-0.51,1.94,0c0.53,0.52,0.53,1.34,0,1.86L53.53,47.97z M49.88,44.8c-1.77,0-3.19-1.37-3.19-3.06s1.42-3.06,3.19-3.06
		s3.19,1.37,3.19,3.06S51.64,44.8,49.88,44.8z"/>
<!--        circle-->
        <path d="M51.88,61.82c-7.25,0-13.13-5.83-13.13-13.01S44.64,35.8,51.88,35.8s13.13,5.83,13.13,13.01S59.13,61.82,51.88,61.82z
		 M40.94,48.81c0,5.98,4.9,10.84,10.94,10.84c6.03,0,10.94-4.86,10.94-10.84s-4.91-10.84-10.94-10.84
		C45.85,37.97,40.94,42.83,40.94,48.81z"/>
    </symbol></svg>