<?xml version="1.0" encoding="utf-8"?>
<!-- Generator: Adobe Illustrator 24.1.3, SVG Export Plug-In . SVG Version: 6.00 Build 0)  -->
<svg version="1.1" id="Layer_1" xmlns="http://www.w3.org/2000/svg" xmlns:xlink="http://www.w3.org/1999/xlink" x="0px" y="0px"
	 viewBox="0 0 100 100" style="enable-background:new 0 0 100 100;" xml:space="preserve">
<g>
	<path d="M56.13,51.04l-8.25,8.62h-4.13v-4.31l8.25-8.62L56.13,51.04z M48.26,57.4l-2.33-2.44l-0.9,0.94v1.11h1.27v1.33h1.06
		L48.26,57.4z M52.32,48.5c-0.06,0-0.12,0.02-0.17,0.07l-5.38,5.62c-0.05,0.05-0.07,0.11-0.07,0.18c0,0.13,0.09,0.23,0.22,0.23
		c0.06,0,0.12-0.02,0.17-0.07l5.38-5.62c0.05-0.05,0.07-0.11,0.07-0.18C52.54,48.59,52.45,48.5,52.32,48.5z M58.41,48.66l-1.65,1.72
		l-4.13-4.31l1.65-1.71c0.23-0.25,0.56-0.39,0.89-0.39s0.66,0.15,0.9,0.39l2.33,2.42c0.23,0.25,0.37,0.59,0.37,0.94
		S58.64,48.42,58.41,48.66z"/>
</g>
<g>
</g>
<g>
</g>
<g>
</g>
<g>
</g>
<g>
</g>
<g>
</g>
<g>
</g>
<g>
</g>
<g>
</g>
<g>
</g>
<g>
</g>
</svg>
