<?xml version="1.0" encoding="utf-8"?>
<!-- Generator: Adobe Illustrator 24.1.3, SVG Export Plug-In . SVG Version: 6.00 Build 0)  -->
<svg version="1.1" id="Layer_1" xmlns="http://www.w3.org/2000/svg" xmlns:xlink="http://www.w3.org/1999/xlink" x="0px" y="0px"
	 viewBox="0 0 100 100" style="enable-background:new 0 0 100 100;" xml:space="preserve">
<style type="text/css">
	.st0{fill:none;}
</style>
<g>
</g>
<g>
	<rect x="-9.8" y="101.47" class="st0" width="3.65" height="1.35"/>
</g>
<g>
	<path d="M59.76,50.63L44.6,66.53h-7.58v-7.95l15.16-15.91L59.76,50.63z M45.29,62.35l-4.28-4.49l-1.66,1.74v2.05h2.33v2.45h1.95
		L45.29,62.35z M52.76,45.92c-0.11,0-0.22,0.04-0.31,0.13l-9.88,10.36c-0.09,0.1-0.13,0.21-0.13,0.33c0,0.25,0.16,0.42,0.4,0.42
		c0.11,0,0.22-0.04,0.31-0.13l9.88-10.36c0.09-0.1,0.13-0.21,0.13-0.33C53.16,46.1,53,45.92,52.76,45.92z M63.95,46.23l-3.02,3.17
		l-7.58-7.95l3.02-3.15c0.42-0.46,1.02-0.73,1.64-0.73s1.22,0.27,1.66,0.73l4.28,4.47c0.42,0.46,0.67,1.09,0.67,1.74
		S64.37,45.79,63.95,46.23z"/>
</g>
<g>
</g>
<g>
</g>
<g>
</g>
<g>
</g>
<g>
</g>
<g>
</g>
<g>
</g>
<g>
</g>
<g>
</g>
<g>
</g>
<g>
</g>
</svg>
