<svg version="1.1"
     xmlns="http://www.w3.org/2000/svg">

    <symbol id="home" viewBox="0 0 100 100">
        <path d="M67.9,52.18c-0.11,0.13-0.29,0.22-0.47,0.25c-0.02,0-0.04,0-0.07,0c-0.18,0-0.33-0.04-0.47-0.16L51.52,39.35L36.13,52.27
		c-0.16,0.11-0.33,0.18-0.53,0.16c-0.18-0.02-0.36-0.11-0.47-0.25l-1.38-1.66c-0.24-0.29-0.2-0.76,0.09-1.01l15.98-13.41
		c0.93-0.78,2.45-0.78,3.38,0l5.42,4.57v-4.37c0-0.4,0.31-0.72,0.71-0.72h4.27c0.4,0,0.71,0.31,0.71,0.72v9.13l4.87,4.07
		c0.29,0.25,0.33,0.72,0.09,1.01L67.9,52.18z M64.32,62.81c0,0.78-0.65,1.43-1.42,1.43h-8.54v-8.6h-5.69v8.6h-8.54
		c-0.78,0-1.42-0.65-1.42-1.43V52.07c0-0.04,0.02-0.09,0.02-0.13l12.78-10.61L64.3,51.93c0.02,0.04,0.02,0.09,0.02,0.13V62.81z"/>
    </symbol>

    <symbol id="brief" viewBox="0 0 100 100">
        <path d="M68,48.26H39.02v-6.09c0-1.4,1.16-2.54,2.59-2.54h5.69V37.1c0-0.84,0.7-1.52,1.55-1.52h9.32c0.86,0,1.55,0.68,1.55,1.52
		v2.54h5.69c1.42,0,2.59,1.14,2.59,2.54V48.26z M68,57.39c0,1.39-1.17,2.54-2.59,2.54H41.61c-1.42,0-2.59-1.14-2.59-2.54v-7.61
		h10.87v2.54c0,0.56,0.47,1.02,1.04,1.02h5.18c0.57,0,1.04-0.46,1.04-1.02v-2.54H68V57.39z M57.65,39.64v-2.03h-8.28v2.03H57.65z
		 M55.58,51.81h-4.14v-2.03h4.14V51.81z"/>
    </symbol>
    <symbol id="pencil" viewBox="0 0 100 100">
        <path d="M59.76,50.63L44.6,66.53h-7.58v-7.95l15.16-15.91L59.76,50.63z M45.29,62.35l-4.28-4.49l-1.66,1.74v2.05h2.33v2.45h1.95
		L45.29,62.35z M52.76,45.92c-0.11,0-0.22,0.04-0.31,0.13l-9.88,10.36c-0.09,0.1-0.13,0.21-0.13,0.33c0,0.25,0.16,0.42,0.4,0.42
		c0.11,0,0.22-0.04,0.31-0.13l9.88-10.36c0.09-0.1,0.13-0.21,0.13-0.33C53.16,46.1,53,45.92,52.76,45.92z M63.95,46.23l-3.02,3.17
		l-7.58-7.95l3.02-3.15c0.42-0.46,1.02-0.73,1.64-0.73s1.22,0.27,1.66,0.73l4.28,4.47c0.42,0.46,0.67,1.09,0.67,1.74
		S64.37,45.79,63.95,46.23z"/>
    </symbol>
    <symbol id="gear" viewBox="0 0 100 100">
        <path d="M65,50.44c0,0.28-0.23,0.61-0.55,0.67l-3.61,0.52c-0.21,0.59-0.45,1.15-0.76,1.69c0.66,0.91,1.37,1.73,2.09,2.56
		c0.12,0.13,0.2,0.3,0.2,0.46s-0.06,0.3-0.18,0.43c-0.47,0.59-3.1,3.32-3.77,3.32c-0.18,0-0.35-0.07-0.51-0.17l-2.69-2.01
		c-0.57,0.28-1.17,0.52-1.78,0.71c-0.14,1.13-0.25,2.34-0.57,3.45c-0.08,0.3-0.35,0.52-0.7,0.52h-4.33c-0.35,0-0.66-0.24-0.7-0.56
		l-0.55-3.42c-0.6-0.19-1.19-0.41-1.76-0.69l-2.75,1.99c-0.14,0.11-0.31,0.17-0.49,0.17c-0.18,0-0.35-0.07-0.49-0.2
		c-1.03-0.89-2.4-2.04-3.22-3.12c-0.1-0.13-0.14-0.28-0.14-0.43c0-0.17,0.06-0.3,0.16-0.43c0.66-0.85,1.39-1.67,2.05-2.54
		c-0.33-0.59-0.6-1.21-0.8-1.84l-3.57-0.5c-0.33-0.06-0.57-0.35-0.57-0.67v-4.12c0-0.28,0.23-0.61,0.53-0.67l3.63-0.52
		c0.2-0.59,0.45-1.15,0.76-1.71c-0.66-0.89-1.37-1.73-2.09-2.56c-0.12-0.13-0.19-0.28-0.19-0.45s0.08-0.3,0.18-0.43
		c0.47-0.61,3.1-3.32,3.77-3.32c0.18,0,0.35,0.07,0.51,0.19l2.69,1.99c0.57-0.28,1.17-0.52,1.78-0.71c0.14-1.13,0.25-2.34,0.57-3.45
		c0.08-0.3,0.35-0.52,0.7-0.52h4.33c0.35,0,0.66,0.24,0.7,0.56l0.55,3.42c0.61,0.19,1.19,0.41,1.76,0.69l2.77-1.99
		c0.12-0.11,0.29-0.17,0.47-0.17s0.35,0.07,0.49,0.19c1.03,0.91,2.4,2.06,3.22,3.16c0.1,0.11,0.14,0.26,0.14,0.41
		c0,0.17-0.06,0.3-0.16,0.43c-0.66,0.85-1.39,1.67-2.05,2.54c0.33,0.59,0.6,1.21,0.8,1.82l3.57,0.52C64.76,45.71,65,46,65,46.32
		V50.44z M50.01,43.59c-2.75,0-5,2.14-5,4.75s2.24,4.75,5,4.75s5-2.14,5-4.75S52.76,43.59,50.01,43.59z"/>

    </symbol>

</svg>