<?xml version="1.0" encoding="utf-8"?>
<!-- Generator: Adobe Illustrator 24.1.3, SVG Export Plug-In . SVG Version: 6.00 Build 0)  -->
<svg version="1.1" id="code-camp" xmlns="http://www.w3.org/2000/svg" xmlns:xlink="http://www.w3.org/1999/xlink" x="0px" y="0px"
	 viewBox="0 0 100 100" style="enable-background:new 0 0 100 100;" xml:space="preserve">
<g>
	<path d="M52.37,59.99c-6.97,0-12.62-5.68-12.62-12.7s5.65-12.7,12.62-12.7s12.62,5.68,12.62,12.7S59.35,59.99,52.37,59.99z
		 M41.56,47.28c0,6,4.86,10.89,10.82,10.89c5.96,0,10.82-4.89,10.82-10.89S58.33,36.4,52.37,36.4
		C46.42,36.4,41.56,41.29,41.56,47.28z M52.37,57.26c-5.48,0-9.92-4.46-9.92-9.98c0-5.51,4.44-9.98,9.92-9.98s9.92,4.47,9.92,9.98
		C62.29,52.8,57.85,57.26,52.37,57.26z M58.02,43.23c-2.01,0.48-3.84,0.88-5.65,0.88s-3.63-0.4-5.65-0.88
		c-0.49-0.11-0.97,0.18-1.08,0.67c-0.11,0.5,0.18,0.98,0.66,1.09c1.49,0.35,2.89,0.67,4.27,0.82c-0.06,4.79-0.58,6.12-1.17,7.65
		l-0.13,0.3c-0.18,0.47,0.06,0.99,0.52,1.18c0.1,0.04,0.21,0.06,0.32,0.06c0.37,0,0.7-0.21,0.85-0.58l0.11-0.28
		c0.39-1.02,0.76-1.97,1-3.67h0.59c0.24,1.7,0.61,2.65,1,3.67l0.11,0.28c0.14,0.37,0.48,0.58,0.84,0.58c0.11,0,0.23-0.01,0.32-0.06
		c0.46-0.18,0.7-0.71,0.52-1.18l-0.13-0.3c-0.59-1.53-1.11-2.86-1.17-7.65c1.38-0.16,2.77-0.47,4.27-0.82
		c0.48-0.11,0.77-0.6,0.66-1.09C58.99,43.41,58.51,43.12,58.02,43.23z M52.37,40.03c-1,0-1.8,0.81-1.8,1.81s0.8,1.81,1.8,1.81
		s1.8-0.81,1.8-1.81S53.37,40.03,52.37,40.03z"/>
</svg>
